# torus - stlkit 的示例模型
v 1 0 0
v 0.989778 0.0776457 0
v 0.959808 0.15 0
v 0.912132 0.212132 0
v 0.85 0.259808 0
v 0.777646 0.289778 0
v 0.7 0.3 0
v 0.622354 0.289778 0
v 0.55 0.259808 0
v 0.487868 0.212132 0
v 0.440192 0.15 0
v 0.410222 0.0776457 0
v 0.4 9.69327e-16 0
v 0.410222 -0.0776457 0
v 0.440192 -0.15 0
v 0.487868 -0.212132 0
v 0.55 -0.259808 0
v 0.622354 -0.289778 0
v 0.7 -0.3 0
v 0.777646 -0.289778 0
v 0.85 -0.259808 0
v 0.912132 -0.212132 0
v 0.959808 -0.15 0
v 0.989778 -0.0776457 0
v 0.991445 0 0.130526
v 0.98131 0.0776457 0.129192
v 0.951596 0.15 0.12528
v 0.904329 0.212132 0.119057
v 0.842728 0.259808 0.110947
v 0.770993 0.289778 0.101503
v 0.694011 0.3 0.0913683
v 0.61703 0.289778 0.0812335
v 0.545295 0.259808 0.0717894
v 0.483694 0.212132 0.0636795
v 0.436426 0.15 0.0574566
v 0.406713 0.0776457 0.0535447
v 0.396578 9.69327e-16 0.0522105
v 0.406713 -0.0776457 0.0535447
v 0.436426 -0.15 0.0574566
v 0.483694 -0.212132 0.0636795
v 0.545295 -0.259808 0.0717894
v 0.61703 -0.289778 0.0812335
v 0.694011 -0.3 0.0913683
v 0.770993 -0.289778 0.101503
v 0.842728 -0.259808 0.110947
v 0.904329 -0.212132 0.119057
v 0.951596 -0.15 0.12528
v 0.98131 -0.0776457 0.129192
v 0.965926 0 0.258819
v 0.956052 0.0776457 0.256173
v 0.927103 0.15 0.248416
v 0.881052 0.212132 0.236077
v 0.821037 0.259808 0.219996
v 0.751148 0.289778 0.20127
v 0.676148 0.3 0.181173
v 0.601148 0.289778 0.161077
v 0.531259 0.259808 0.14235
v 0.471244 0.212132 0.12627
v 0.425193 0.15 0.11393
v 0.396244 0.0776457 0.106173
v 0.38637 9.69327e-16 0.103528
v 0.396244 -0.0776457 0.106173
v 0.425193 -0.15 0.11393
v 0.471244 -0.212132 0.12627
v 0.531259 -0.259808 0.14235
v 0.601148 -0.289778 0.161077
v 0.676148 -0.3 0.181173
v 0.751148 -0.289778 0.20127
v 0.821037 -0.259808 0.219996
v 0.881052 -0.212132 0.236077
v 0.927103 -0.15 0.248416
v 0.956052 -0.0776457 0.256173
v 0.92388 0 0.382683
v 0.914435 0.0776457 0.378772
v 0.886747 0.15 0.367302
v 0.8427 0.212132 0.349058
v 0.785298 0.259808 0.325281
v 0.718451 0.289778 0.297592
v 0.646716 0.3 0.267878
v 0.57498 0.289778 0.238165
v 0.508134 0.259808 0.210476
v 0.450731 0.212132 0.186699
v 0.406685 0.15 0.168454
v 0.378996 0.0776457 0.156985
v 0.369552 9.69327e-16 0.153073
v 0.378996 -0.0776457 0.156985
v 0.406685 -0.15 0.168454
v 0.450731 -0.212132 0.186699
v 0.508134 -0.259808 0.210476
v 0.57498 -0.289778 0.238165
v 0.646716 -0.3 0.267878
v 0.718451 -0.289778 0.297592
v 0.785298 -0.259808 0.325281
v 0.8427 -0.212132 0.349058
v 0.886747 -0.15 0.367302
v 0.914435 -0.0776457 0.378772
v 0.866025 0 0.5
v 0.857173 0.0776457 0.494889
v 0.831218 0.15 0.479904
v 0.78993 0.212132 0.456066
v 0.736122 0.259808 0.425
v 0.673461 0.289778 0.388823
v 0.606218 0.3 0.35
v 0.538975 0.289778 0.311177
v 0.476314 0.259808 0.275
v 0.422506 0.212132 0.243934
v 0.381218 0.15 0.220096
v 0.355263 0.0776457 0.205111
v 0.34641 9.69327e-16 0.2
v 0.355263 -0.0776457 0.205111
v 0.381218 -0.15 0.220096
v 0.422506 -0.212132 0.243934
v 0.476314 -0.259808 0.275
v 0.538975 -0.289778 0.311177
v 0.606218 -0.3 0.35
v 0.673461 -0.289778 0.388823
v 0.736122 -0.259808 0.425
v 0.78993 -0.212132 0.456066
v 0.831218 -0.15 0.479904
v 0.857173 -0.0776457 0.494889
v 0.793353 0 0.608761
v 0.785243 0.0776457 0.602539
v 0.761467 0.15 0.584294
v 0.723643 0.212132 0.555271
v 0.67435 0.259808 0.517447
v 0.616948 0.289778 0.473401
v 0.555347 0.3 0.426133
v 0.493747 0.289778 0.378865
v 0.436344 0.259808 0.334819
v 0.387052 0.212132 0.296995
v 0.349228 0.15 0.267972
v 0.325451 0.0776457 0.249727
v 0.317341 9.69327e-16 0.243505
v 0.325451 -0.0776457 0.249727
v 0.349228 -0.15 0.267972
v 0.387052 -0.212132 0.296995
v 0.436344 -0.259808 0.334819
v 0.493747 -0.289778 0.378865
v 0.555347 -0.3 0.426133
v 0.616948 -0.289778 0.473401
v 0.67435 -0.259808 0.517447
v 0.723643 -0.212132 0.555271
v 0.761467 -0.15 0.584294
v 0.785243 -0.0776457 0.602539
v 0.707107 0 0.707107
v 0.699879 0.0776457 0.699879
v 0.678686 0.15 0.678686
v 0.644975 0.212132 0.644975
v 0.601041 0.259808 0.601041
v 0.549879 0.289778 0.549879
v 0.494975 0.3 0.494975
v 0.440071 0.289778 0.440071
v 0.388909 0.259808 0.388909
v 0.344975 0.212132 0.344975
v 0.311263 0.15 0.311263
v 0.290071 0.0776457 0.290071
v 0.282843 9.69327e-16 0.282843
v 0.290071 -0.0776457 0.290071
v 0.311263 -0.15 0.311263
v 0.344975 -0.212132 0.344975
v 0.388909 -0.259808 0.388909
v 0.440071 -0.289778 0.440071
v 0.494975 -0.3 0.494975
v 0.549879 -0.289778 0.549879
v 0.601041 -0.259808 0.601041
v 0.644975 -0.212132 0.644975
v 0.678686 -0.15 0.678686
v 0.699879 -0.0776457 0.699879
v 0.608761 0 0.793353
v 0.602539 0.0776457 0.785243
v 0.584294 0.15 0.761467
v 0.555271 0.212132 0.723643
v 0.517447 0.259808 0.67435
v 0.473401 0.289778 0.616948
v 0.426133 0.3 0.555347
v 0.378865 0.289778 0.493747
v 0.334819 0.259808 0.436344
v 0.296995 0.212132 0.387052
v 0.267972 0.15 0.349228
v 0.249727 0.0776457 0.325451
v 0.243505 9.69327e-16 0.317341
v 0.249727 -0.0776457 0.325451
v 0.267972 -0.15 0.349228
v 0.296995 -0.212132 0.387052
v 0.334819 -0.259808 0.436344
v 0.378865 -0.289778 0.493747
v 0.426133 -0.3 0.555347
v 0.473401 -0.289778 0.616948
v 0.517447 -0.259808 0.67435
v 0.555271 -0.212132 0.723643
v 0.584294 -0.15 0.761467
v 0.602539 -0.0776457 0.785243
v 0.5 0 0.866025
v 0.494889 0.0776457 0.857173
v 0.479904 0.15 0.831218
v 0.456066 0.212132 0.78993
v 0.425 0.259808 0.736122
v 0.388823 0.289778 0.673461
v 0.35 0.3 0.606218
v 0.311177 0.289778 0.538975
v 0.275 0.259808 0.476314
v 0.243934 0.212132 0.422506
v 0.220096 0.15 0.381218
v 0.205111 0.0776457 0.355263
v 0.2 9.69327e-16 0.34641
v 0.205111 -0.0776457 0.355263
v 0.220096 -0.15 0.381218
v 0.243934 -0.212132 0.422506
v 0.275 -0.259808 0.476314
v 0.311177 -0.289778 0.538975
v 0.35 -0.3 0.606218
v 0.388823 -0.289778 0.673461
v 0.425 -0.259808 0.736122
v 0.456066 -0.212132 0.78993
v 0.479904 -0.15 0.831218
v 0.494889 -0.0776457 0.857173
v 0.382683 0 0.92388
v 0.378772 0.0776457 0.914435
v 0.367302 0.15 0.886747
v 0.349058 0.212132 0.8427
v 0.325281 0.259808 0.785298
v 0.297592 0.289778 0.718451
v 0.267878 0.3 0.646716
v 0.238165 0.289778 0.57498
v 0.210476 0.259808 0.508134
v 0.186699 0.212132 0.450731
v 0.168454 0.15 0.406685
v 0.156985 0.0776457 0.378996
v 0.153073 9.69327e-16 0.369552
v 0.156985 -0.0776457 0.378996
v 0.168454 -0.15 0.406685
v 0.186699 -0.212132 0.450731
v 0.210476 -0.259808 0.508134
v 0.238165 -0.289778 0.57498
v 0.267878 -0.3 0.646716
v 0.297592 -0.289778 0.718451
v 0.325281 -0.259808 0.785298
v 0.349058 -0.212132 0.8427
v 0.367302 -0.15 0.886747
v 0.378772 -0.0776457 0.914435
v 0.258819 0 0.965926
v 0.256173 0.0776457 0.956052
v 0.248416 0.15 0.927103
v 0.236077 0.212132 0.881052
v 0.219996 0.259808 0.821037
v 0.20127 0.289778 0.751148
v 0.181173 0.3 0.676148
v 0.161077 0.289778 0.601148
v 0.14235 0.259808 0.531259
v 0.12627 0.212132 0.471244
v 0.11393 0.15 0.425193
v 0.106173 0.0776457 0.396244
v 0.103528 9.69327e-16 0.38637
v 0.106173 -0.0776457 0.396244
v 0.11393 -0.15 0.425193
v 0.12627 -0.212132 0.471244
v 0.14235 -0.259808 0.531259
v 0.161077 -0.289778 0.601148
v 0.181173 -0.3 0.676148
v 0.20127 -0.289778 0.751148
v 0.219996 -0.259808 0.821037
v 0.236077 -0.212132 0.881052
v 0.248416 -0.15 0.927103
v 0.256173 -0.0776457 0.956052
v 0.130526 0 0.991445
v 0.129192 0.0776457 0.98131
v 0.12528 0.15 0.951596
v 0.119057 0.212132 0.904329
v 0.110947 0.259808 0.842728
v 0.101503 0.289778 0.770993
v 0.0913683 0.3 0.694011
v 0.0812335 0.289778 0.61703
v 0.0717894 0.259808 0.545295
v 0.0636795 0.212132 0.483694
v 0.0574566 0.15 0.436426
v 0.0535447 0.0776457 0.406713
v 0.0522105 9.69327e-16 0.396578
v 0.0535447 -0.0776457 0.406713
v 0.0574566 -0.15 0.436426
v 0.0636795 -0.212132 0.483694
v 0.0717894 -0.259808 0.545295
v 0.0812335 -0.289778 0.61703
v 0.0913683 -0.3 0.694011
v 0.101503 -0.289778 0.770993
v 0.110947 -0.259808 0.842728
v 0.119057 -0.212132 0.904329
v 0.12528 -0.15 0.951596
v 0.129192 -0.0776457 0.98131
v 1.61554e-15 0 1
v 1.59903e-15 0.0776457 0.989778
v 1.55061e-15 0.15 0.959808
v 1.47359e-15 0.212132 0.912132
v 1.37321e-15 0.259808 0.85
v 1.25632e-15 0.289778 0.777646
v 1.13088e-15 0.3 0.7
v 1.00544e-15 0.289778 0.622354
v 8.8855e-16 0.259808 0.55
v 7.88172e-16 0.212132 0.487868
v 7.1115e-16 0.15 0.440192
v 6.62732e-16 0.0776457 0.410222
v 6.46218e-16 9.69327e-16 0.4
v 6.62732e-16 -0.0776457 0.410222
v 7.1115e-16 -0.15 0.440192
v 7.88172e-16 -0.212132 0.487868
v 8.8855e-16 -0.259808 0.55
v 1.00544e-15 -0.289778 0.622354
v 1.13088e-15 -0.3 0.7
v 1.25632e-15 -0.289778 0.777646
v 1.37321e-15 -0.259808 0.85
v 1.47359e-15 -0.212132 0.912132
v 1.55061e-15 -0.15 0.959808
v 1.59903e-15 -0.0776457 0.989778
v -0.130526 0 0.991445
v -0.129192 0.0776457 0.98131
v -0.12528 0.15 0.951596
v -0.119057 0.212132 0.904329
v -0.110947 0.259808 0.842728
v -0.101503 0.289778 0.770993
v -0.0913683 0.3 0.694011
v -0.0812335 0.289778 0.61703
v -0.0717894 0.259808 0.545295
v -0.0636795 0.212132 0.483694
v -0.0574566 0.15 0.436426
v -0.0535447 0.0776457 0.406713
v -0.0522105 9.69327e-16 0.396578
v -0.0535447 -0.0776457 0.406713
v -0.0574566 -0.15 0.436426
v -0.0636795 -0.212132 0.483694
v -0.0717894 -0.259808 0.545295
v -0.0812335 -0.289778 0.61703
v -0.0913683 -0.3 0.694011
v -0.101503 -0.289778 0.770993
v -0.110947 -0.259808 0.842728
v -0.119057 -0.212132 0.904329
v -0.12528 -0.15 0.951596
v -0.129192 -0.0776457 0.98131
v -0.258819 0 0.965926
v -0.256173 0.0776457 0.956052
v -0.248416 0.15 0.927103
v -0.236077 0.212132 0.881052
v -0.219996 0.259808 0.821037
v -0.20127 0.289778 0.751148
v -0.181173 0.3 0.676148
v -0.161077 0.289778 0.601148
v -0.14235 0.259808 0.531259
v -0.12627 0.212132 0.471244
v -0.11393 0.15 0.425193
v -0.106173 0.0776457 0.396244
v -0.103528 9.69327e-16 0.38637
v -0.106173 -0.0776457 0.396244
v -0.11393 -0.15 0.425193
v -0.12627 -0.212132 0.471244
v -0.14235 -0.259808 0.531259
v -0.161077 -0.289778 0.601148
v -0.181173 -0.3 0.676148
v -0.20127 -0.289778 0.751148
v -0.219996 -0.259808 0.821037
v -0.236077 -0.212132 0.881052
v -0.248416 -0.15 0.927103
v -0.256173 -0.0776457 0.956052
v -0.382683 0 0.92388
v -0.378772 0.0776457 0.914435
v -0.367302 0.15 0.886747
v -0.349058 0.212132 0.8427
v -0.325281 0.259808 0.785298
v -0.297592 0.289778 0.718451
v -0.267878 0.3 0.646716
v -0.238165 0.289778 0.57498
v -0.210476 0.259808 0.508134
v -0.186699 0.212132 0.450731
v -0.168454 0.15 0.406685
v -0.156985 0.0776457 0.378996
v -0.153073 9.69327e-16 0.369552
v -0.156985 -0.0776457 0.378996
v -0.168454 -0.15 0.406685
v -0.186699 -0.212132 0.450731
v -0.210476 -0.259808 0.508134
v -0.238165 -0.289778 0.57498
v -0.267878 -0.3 0.646716
v -0.297592 -0.289778 0.718451
v -0.325281 -0.259808 0.785298
v -0.349058 -0.212132 0.8427
v -0.367302 -0.15 0.886747
v -0.378772 -0.0776457 0.914435
v -0.5 0 0.866025
v -0.494889 0.0776457 0.857173
v -0.479904 0.15 0.831218
v -0.456066 0.212132 0.78993
v -0.425 0.259808 0.736122
v -0.388823 0.289778 0.673461
v -0.35 0.3 0.606218
v -0.311177 0.289778 0.538975
v -0.275 0.259808 0.476314
v -0.243934 0.212132 0.422506
v -0.220096 0.15 0.381218
v -0.205111 0.0776457 0.355263
v -0.2 9.69327e-16 0.34641
v -0.205111 -0.0776457 0.355263
v -0.220096 -0.15 0.381218
v -0.243934 -0.212132 0.422506
v -0.275 -0.259808 0.476314
v -0.311177 -0.289778 0.538975
v -0.35 -0.3 0.606218
v -0.388823 -0.289778 0.673461
v -0.425 -0.259808 0.736122
v -0.456066 -0.212132 0.78993
v -0.479904 -0.15 0.831218
v -0.494889 -0.0776457 0.857173
v -0.608761 0 0.793353
v -0.602539 0.0776457 0.785243
v -0.584294 0.15 0.761467
v -0.555271 0.212132 0.723643
v -0.517447 0.259808 0.67435
v -0.473401 0.289778 0.616948
v -0.426133 0.3 0.555347
v -0.378865 0.289778 0.493747
v -0.334819 0.259808 0.436344
v -0.296995 0.212132 0.387052
v -0.267972 0.15 0.349228
v -0.249727 0.0776457 0.325451
v -0.243505 9.69327e-16 0.317341
v -0.249727 -0.0776457 0.325451
v -0.267972 -0.15 0.349228
v -0.296995 -0.212132 0.387052
v -0.334819 -0.259808 0.436344
v -0.378865 -0.289778 0.493747
v -0.426133 -0.3 0.555347
v -0.473401 -0.289778 0.616948
v -0.517447 -0.259808 0.67435
v -0.555271 -0.212132 0.723643
v -0.584294 -0.15 0.761467
v -0.602539 -0.0776457 0.785243
v -0.707107 0 0.707107
v -0.699879 0.0776457 0.699879
v -0.678686 0.15 0.678686
v -0.644975 0.212132 0.644975
v -0.601041 0.259808 0.601041
v -0.549879 0.289778 0.549879
v -0.494975 0.3 0.494975
v -0.440071 0.289778 0.440071
v -0.388909 0.259808 0.388909
v -0.344975 0.212132 0.344975
v -0.311263 0.15 0.311263
v -0.290071 0.0776457 0.290071
v -0.282843 9.69327e-16 0.282843
v -0.290071 -0.0776457 0.290071
v -0.311263 -0.15 0.311263
v -0.344975 -0.212132 0.344975
v -0.388909 -0.259808 0.388909
v -0.440071 -0.289778 0.440071
v -0.494975 -0.3 0.494975
v -0.549879 -0.289778 0.549879
v -0.601041 -0.259808 0.601041
v -0.644975 -0.212132 0.644975
v -0.678686 -0.15 0.678686
v -0.699879 -0.0776457 0.699879
v -0.793353 0 0.608761
v -0.785243 0.0776457 0.602539
v -0.761467 0.15 0.584294
v -0.723643 0.212132 0.555271
v -0.67435 0.259808 0.517447
v -0.616948 0.289778 0.473401
v -0.555347 0.3 0.426133
v -0.493747 0.289778 0.378865
v -0.436344 0.259808 0.334819
v -0.387052 0.212132 0.296995
v -0.349228 0.15 0.267972
v -0.325451 0.0776457 0.249727
v -0.317341 9.69327e-16 0.243505
v -0.325451 -0.0776457 0.249727
v -0.349228 -0.15 0.267972
v -0.387052 -0.212132 0.296995
v -0.436344 -0.259808 0.334819
v -0.493747 -0.289778 0.378865
v -0.555347 -0.3 0.426133
v -0.616948 -0.289778 0.473401
v -0.67435 -0.259808 0.517447
v -0.723643 -0.212132 0.555271
v -0.761467 -0.15 0.584294
v -0.785243 -0.0776457 0.602539
v -0.866025 0 0.5
v -0.857173 0.0776457 0.494889
v -0.831218 0.15 0.479904
v -0.78993 0.212132 0.456066
v -0.736122 0.259808 0.425
v -0.673461 0.289778 0.388823
v -0.606218 0.3 0.35
v -0.538975 0.289778 0.311177
v -0.476314 0.259808 0.275
v -0.422506 0.212132 0.243934
v -0.381218 0.15 0.220096
v -0.355263 0.0776457 0.205111
v -0.34641 9.69327e-16 0.2
v -0.355263 -0.0776457 0.205111
v -0.381218 -0.15 0.220096
v -0.422506 -0.212132 0.243934
v -0.476314 -0.259808 0.275
v -0.538975 -0.289778 0.311177
v -0.606218 -0.3 0.35
v -0.673461 -0.289778 0.388823
v -0.736122 -0.259808 0.425
v -0.78993 -0.212132 0.456066
v -0.831218 -0.15 0.479904
v -0.857173 -0.0776457 0.494889
v -0.92388 0 0.382683
v -0.914435 0.0776457 0.378772
v -0.886747 0.15 0.367302
v -0.8427 0.212132 0.349058
v -0.785298 0.259808 0.325281
v -0.718451 0.289778 0.297592
v -0.646716 0.3 0.267878
v -0.57498 0.289778 0.238165
v -0.508134 0.259808 0.210476
v -0.450731 0.212132 0.186699
v -0.406685 0.15 0.168454
v -0.378996 0.0776457 0.156985
v -0.369552 9.69327e-16 0.153073
v -0.378996 -0.0776457 0.156985
v -0.406685 -0.15 0.168454
v -0.450731 -0.212132 0.186699
v -0.508134 -0.259808 0.210476
v -0.57498 -0.289778 0.238165
v -0.646716 -0.3 0.267878
v -0.718451 -0.289778 0.297592
v -0.785298 -0.259808 0.325281
v -0.8427 -0.212132 0.349058
v -0.886747 -0.15 0.367302
v -0.914435 -0.0776457 0.378772
v -0.965926 0 0.258819
v -0.956052 0.0776457 0.256173
v -0.927103 0.15 0.248416
v -0.881052 0.212132 0.236077
v -0.821037 0.259808 0.219996
v -0.751148 0.289778 0.20127
v -0.676148 0.3 0.181173
v -0.601148 0.289778 0.161077
v -0.531259 0.259808 0.14235
v -0.471244 0.212132 0.12627
v -0.425193 0.15 0.11393
v -0.396244 0.0776457 0.106173
v -0.38637 9.69327e-16 0.103528
v -0.396244 -0.0776457 0.106173
v -0.425193 -0.15 0.11393
v -0.471244 -0.212132 0.12627
v -0.531259 -0.259808 0.14235
v -0.601148 -0.289778 0.161077
v -0.676148 -0.3 0.181173
v -0.751148 -0.289778 0.20127
v -0.821037 -0.259808 0.219996
v -0.881052 -0.212132 0.236077
v -0.927103 -0.15 0.248416
v -0.956052 -0.0776457 0.256173
v -0.991445 0 0.130526
v -0.98131 0.0776457 0.129192
v -0.951596 0.15 0.12528
v -0.904329 0.212132 0.119057
v -0.842728 0.259808 0.110947
v -0.770993 0.289778 0.101503
v -0.694011 0.3 0.0913683
v -0.61703 0.289778 0.0812335
v -0.545295 0.259808 0.0717894
v -0.483694 0.212132 0.0636795
v -0.436426 0.15 0.0574566
v -0.406713 0.0776457 0.0535447
v -0.396578 9.69327e-16 0.0522105
v -0.406713 -0.0776457 0.0535447
v -0.436426 -0.15 0.0574566
v -0.483694 -0.212132 0.0636795
v -0.545295 -0.259808 0.0717894
v -0.61703 -0.289778 0.0812335
v -0.694011 -0.3 0.0913683
v -0.770993 -0.289778 0.101503
v -0.842728 -0.259808 0.110947
v -0.904329 -0.212132 0.119057
v -0.951596 -0.15 0.12528
v -0.98131 -0.0776457 0.129192
v -1 0 3.23109e-15
v -0.989778 0.0776457 3.19806e-15
v -0.959808 0.15 3.10122e-15
v -0.912132 0.212132 2.94718e-15
v -0.85 0.259808 2.74643e-15
v -0.777646 0.289778 2.51264e-15
v -0.7 0.3 2.26176e-15
v -0.622354 0.289778 2.01088e-15
v -0.55 0.259808 1.7771e-15
v -0.487868 0.212132 1.57634e-15
v -0.440192 0.15 1.4223e-15
v -0.410222 0.0776457 1.32546e-15
v -0.4 9.69327e-16 1.29244e-15
v -0.410222 -0.0776457 1.32546e-15
v -0.440192 -0.15 1.4223e-15
v -0.487868 -0.212132 1.57634e-15
v -0.55 -0.259808 1.7771e-15
v -0.622354 -0.289778 2.01088e-15
v -0.7 -0.3 2.26176e-15
v -0.777646 -0.289778 2.51264e-15
v -0.85 -0.259808 2.74643e-15
v -0.912132 -0.212132 2.94718e-15
v -0.959808 -0.15 3.10122e-15
v -0.989778 -0.0776457 3.19806e-15
v -0.991445 0 -0.130526
v -0.98131 0.0776457 -0.129192
v -0.951596 0.15 -0.12528
v -0.904329 0.212132 -0.119057
v -0.842728 0.259808 -0.110947
v -0.770993 0.289778 -0.101503
v -0.694011 0.3 -0.0913683
v -0.61703 0.289778 -0.0812335
v -0.545295 0.259808 -0.0717894
v -0.483694 0.212132 -0.0636795
v -0.436426 0.15 -0.0574566
v -0.406713 0.0776457 -0.0535447
v -0.396578 9.69327e-16 -0.0522105
v -0.406713 -0.0776457 -0.0535447
v -0.436426 -0.15 -0.0574566
v -0.483694 -0.212132 -0.0636795
v -0.545295 -0.259808 -0.0717894
v -0.61703 -0.289778 -0.0812335
v -0.694011 -0.3 -0.0913683
v -0.770993 -0.289778 -0.101503
v -0.842728 -0.259808 -0.110947
v -0.904329 -0.212132 -0.119057
v -0.951596 -0.15 -0.12528
v -0.98131 -0.0776457 -0.129192
v -0.965926 0 -0.258819
v -0.956052 0.0776457 -0.256173
v -0.927103 0.15 -0.248416
v -0.881052 0.212132 -0.236077
v -0.821037 0.259808 -0.219996
v -0.751148 0.289778 -0.20127
v -0.676148 0.3 -0.181173
v -0.601148 0.289778 -0.161077
v -0.531259 0.259808 -0.14235
v -0.471244 0.212132 -0.12627
v -0.425193 0.15 -0.11393
v -0.396244 0.0776457 -0.106173
v -0.38637 9.69327e-16 -0.103528
v -0.396244 -0.0776457 -0.106173
v -0.425193 -0.15 -0.11393
v -0.471244 -0.212132 -0.12627
v -0.531259 -0.259808 -0.14235
v -0.601148 -0.289778 -0.161077
v -0.676148 -0.3 -0.181173
v -0.751148 -0.289778 -0.20127
v -0.821037 -0.259808 -0.219996
v -0.881052 -0.212132 -0.236077
v -0.927103 -0.15 -0.248416
v -0.956052 -0.0776457 -0.256173
v -0.92388 0 -0.382683
v -0.914435 0.0776457 -0.378772
v -0.886747 0.15 -0.367302
v -0.8427 0.212132 -0.349058
v -0.785298 0.259808 -0.325281
v -0.718451 0.289778 -0.297592
v -0.646716 0.3 -0.267878
v -0.57498 0.289778 -0.238165
v -0.508134 0.259808 -0.210476
v -0.450731 0.212132 -0.186699
v -0.406685 0.15 -0.168454
v -0.378996 0.0776457 -0.156985
v -0.369552 9.69327e-16 -0.153073
v -0.378996 -0.0776457 -0.156985
v -0.406685 -0.15 -0.168454
v -0.450731 -0.212132 -0.186699
v -0.508134 -0.259808 -0.210476
v -0.57498 -0.289778 -0.238165
v -0.646716 -0.3 -0.267878
v -0.718451 -0.289778 -0.297592
v -0.785298 -0.259808 -0.325281
v -0.8427 -0.212132 -0.349058
v -0.886747 -0.15 -0.367302
v -0.914435 -0.0776457 -0.378772
v -0.866025 0 -0.5
v -0.857173 0.0776457 -0.494889
v -0.831218 0.15 -0.479904
v -0.78993 0.212132 -0.456066
v -0.736122 0.259808 -0.425
v -0.673461 0.289778 -0.388823
v -0.606218 0.3 -0.35
v -0.538975 0.289778 -0.311177
v -0.476314 0.259808 -0.275
v -0.422506 0.212132 -0.243934
v -0.381218 0.15 -0.220096
v -0.355263 0.0776457 -0.205111
v -0.34641 9.69327e-16 -0.2
v -0.355263 -0.0776457 -0.205111
v -0.381218 -0.15 -0.220096
v -0.422506 -0.212132 -0.243934
v -0.476314 -0.259808 -0.275
v -0.538975 -0.289778 -0.311177
v -0.606218 -0.3 -0.35
v -0.673461 -0.289778 -0.388823
v -0.736122 -0.259808 -0.425
v -0.78993 -0.212132 -0.456066
v -0.831218 -0.15 -0.479904
v -0.857173 -0.0776457 -0.494889
v -0.793353 0 -0.608761
v -0.785243 0.0776457 -0.602539
v -0.761467 0.15 -0.584294
v -0.723643 0.212132 -0.555271
v -0.67435 0.259808 -0.517447
v -0.616948 0.289778 -0.473401
v -0.555347 0.3 -0.426133
v -0.493747 0.289778 -0.378865
v -0.436344 0.259808 -0.334819
v -0.387052 0.212132 -0.296995
v -0.349228 0.15 -0.267972
v -0.325451 0.0776457 -0.249727
v -0.317341 9.69327e-16 -0.243505
v -0.325451 -0.0776457 -0.249727
v -0.349228 -0.15 -0.267972
v -0.387052 -0.212132 -0.296995
v -0.436344 -0.259808 -0.334819
v -0.493747 -0.289778 -0.378865
v -0.555347 -0.3 -0.426133
v -0.616948 -0.289778 -0.473401
v -0.67435 -0.259808 -0.517447
v -0.723643 -0.212132 -0.555271
v -0.761467 -0.15 -0.584294
v -0.785243 -0.0776457 -0.602539
v -0.707107 0 -0.707107
v -0.699879 0.0776457 -0.699879
v -0.678686 0.15 -0.678686
v -0.644975 0.212132 -0.644975
v -0.601041 0.259808 -0.601041
v -0.549879 0.289778 -0.549879
v -0.494975 0.3 -0.494975
v -0.440071 0.289778 -0.440071
v -0.388909 0.259808 -0.388909
v -0.344975 0.212132 -0.344975
v -0.311263 0.15 -0.311263
v -0.290071 0.0776457 -0.290071
v -0.282843 9.69327e-16 -0.282843
v -0.290071 -0.0776457 -0.290071
v -0.311263 -0.15 -0.311263
v -0.344975 -0.212132 -0.344975
v -0.388909 -0.259808 -0.388909
v -0.440071 -0.289778 -0.440071
v -0.494975 -0.3 -0.494975
v -0.549879 -0.289778 -0.549879
v -0.601041 -0.259808 -0.601041
v -0.644975 -0.212132 -0.644975
v -0.678686 -0.15 -0.678686
v -0.699879 -0.0776457 -0.699879
v -0.608761 0 -0.793353
v -0.602539 0.0776457 -0.785243
v -0.584294 0.15 -0.761467
v -0.555271 0.212132 -0.723643
v -0.517447 0.259808 -0.67435
v -0.473401 0.289778 -0.616948
v -0.426133 0.3 -0.555347
v -0.378865 0.289778 -0.493747
v -0.334819 0.259808 -0.436344
v -0.296995 0.212132 -0.387052
v -0.267972 0.15 -0.349228
v -0.249727 0.0776457 -0.325451
v -0.243505 9.69327e-16 -0.317341
v -0.249727 -0.0776457 -0.325451
v -0.267972 -0.15 -0.349228
v -0.296995 -0.212132 -0.387052
v -0.334819 -0.259808 -0.436344
v -0.378865 -0.289778 -0.493747
v -0.426133 -0.3 -0.555347
v -0.473401 -0.289778 -0.616948
v -0.517447 -0.259808 -0.67435
v -0.555271 -0.212132 -0.723643
v -0.584294 -0.15 -0.761467
v -0.602539 -0.0776457 -0.785243
v -0.5 0 -0.866025
v -0.494889 0.0776457 -0.857173
v -0.479904 0.15 -0.831218
v -0.456066 0.212132 -0.78993
v -0.425 0.259808 -0.736122
v -0.388823 0.289778 -0.673461
v -0.35 0.3 -0.606218
v -0.311177 0.289778 -0.538975
v -0.275 0.259808 -0.476314
v -0.243934 0.212132 -0.422506
v -0.220096 0.15 -0.381218
v -0.205111 0.0776457 -0.355263
v -0.2 9.69327e-16 -0.34641
v -0.205111 -0.0776457 -0.355263
v -0.220096 -0.15 -0.381218
v -0.243934 -0.212132 -0.422506
v -0.275 -0.259808 -0.476314
v -0.311177 -0.289778 -0.538975
v -0.35 -0.3 -0.606218
v -0.388823 -0.289778 -0.673461
v -0.425 -0.259808 -0.736122
v -0.456066 -0.212132 -0.78993
v -0.479904 -0.15 -0.831218
v -0.494889 -0.0776457 -0.857173
v -0.382683 0 -0.92388
v -0.378772 0.0776457 -0.914435
v -0.367302 0.15 -0.886747
v -0.349058 0.212132 -0.8427
v -0.325281 0.259808 -0.785298
v -0.297592 0.289778 -0.718451
v -0.267878 0.3 -0.646716
v -0.238165 0.289778 -0.57498
v -0.210476 0.259808 -0.508134
v -0.186699 0.212132 -0.450731
v -0.168454 0.15 -0.406685
v -0.156985 0.0776457 -0.378996
v -0.153073 9.69327e-16 -0.369552
v -0.156985 -0.0776457 -0.378996
v -0.168454 -0.15 -0.406685
v -0.186699 -0.212132 -0.450731
v -0.210476 -0.259808 -0.508134
v -0.238165 -0.289778 -0.57498
v -0.267878 -0.3 -0.646716
v -0.297592 -0.289778 -0.718451
v -0.325281 -0.259808 -0.785298
v -0.349058 -0.212132 -0.8427
v -0.367302 -0.15 -0.886747
v -0.378772 -0.0776457 -0.914435
v -0.258819 0 -0.965926
v -0.256173 0.0776457 -0.956052
v -0.248416 0.15 -0.927103
v -0.236077 0.212132 -0.881052
v -0.219996 0.259808 -0.821037
v -0.20127 0.289778 -0.751148
v -0.181173 0.3 -0.676148
v -0.161077 0.289778 -0.601148
v -0.14235 0.259808 -0.531259
v -0.12627 0.212132 -0.471244
v -0.11393 0.15 -0.425193
v -0.106173 0.0776457 -0.396244
v -0.103528 9.69327e-16 -0.38637
v -0.106173 -0.0776457 -0.396244
v -0.11393 -0.15 -0.425193
v -0.12627 -0.212132 -0.471244
v -0.14235 -0.259808 -0.531259
v -0.161077 -0.289778 -0.601148
v -0.181173 -0.3 -0.676148
v -0.20127 -0.289778 -0.751148
v -0.219996 -0.259808 -0.821037
v -0.236077 -0.212132 -0.881052
v -0.248416 -0.15 -0.927103
v -0.256173 -0.0776457 -0.956052
v -0.130526 0 -0.991445
v -0.129192 0.0776457 -0.98131
v -0.12528 0.15 -0.951596
v -0.119057 0.212132 -0.904329
v -0.110947 0.259808 -0.842728
v -0.101503 0.289778 -0.770993
v -0.0913683 0.3 -0.694011
v -0.0812335 0.289778 -0.61703
v -0.0717894 0.259808 -0.545295
v -0.0636795 0.212132 -0.483694
v -0.0574566 0.15 -0.436426
v -0.0535447 0.0776457 -0.406713
v -0.0522105 9.69327e-16 -0.396578
v -0.0535447 -0.0776457 -0.406713
v -0.0574566 -0.15 -0.436426
v -0.0636795 -0.212132 -0.483694
v -0.0717894 -0.259808 -0.545295
v -0.0812335 -0.289778 -0.61703
v -0.0913683 -0.3 -0.694011
v -0.101503 -0.289778 -0.770993
v -0.110947 -0.259808 -0.842728
v -0.119057 -0.212132 -0.904329
v -0.12528 -0.15 -0.951596
v -0.129192 -0.0776457 -0.98131
v -4.62459e-15 0 -1
v -4.57732e-15 0.0776457 -0.989778
v -4.43872e-15 0.15 -0.959808
v -4.21824e-15 0.212132 -0.912132
v -3.9309e-15 0.259808 -0.85
v -3.59629e-15 0.289778 -0.777646
v -3.23721e-15 0.3 -0.7
v -2.87813e-15 0.289778 -0.622354
v -2.54352e-15 0.259808 -0.55
v -2.25619e-15 0.212132 -0.487868
v -2.03571e-15 0.15 -0.440192
v -1.89711e-15 0.0776457 -0.410222
v -1.84984e-15 9.69327e-16 -0.4
v -1.89711e-15 -0.0776457 -0.410222
v -2.03571e-15 -0.15 -0.440192
v -2.25619e-15 -0.212132 -0.487868
v -2.54352e-15 -0.259808 -0.55
v -2.87813e-15 -0.289778 -0.622354
v -3.23721e-15 -0.3 -0.7
v -3.59629e-15 -0.289778 -0.777646
v -3.9309e-15 -0.259808 -0.85
v -4.21824e-15 -0.212132 -0.912132
v -4.43872e-15 -0.15 -0.959808
v -4.57732e-15 -0.0776457 -0.989778
v 0.130526 0 -0.991445
v 0.129192 0.0776457 -0.98131
v 0.12528 0.15 -0.951596
v 0.119057 0.212132 -0.904329
v 0.110947 0.259808 -0.842728
v 0.101503 0.289778 -0.770993
v 0.0913683 0.3 -0.694011
v 0.0812335 0.289778 -0.61703
v 0.0717894 0.259808 -0.545295
v 0.0636795 0.212132 -0.483694
v 0.0574566 0.15 -0.436426
v 0.0535447 0.0776457 -0.406713
v 0.0522105 9.69327e-16 -0.396578
v 0.0535447 -0.0776457 -0.406713
v 0.0574566 -0.15 -0.436426
v 0.0636795 -0.212132 -0.483694
v 0.0717894 -0.259808 -0.545295
v 0.0812335 -0.289778 -0.61703
v 0.0913683 -0.3 -0.694011
v 0.101503 -0.289778 -0.770993
v 0.110947 -0.259808 -0.842728
v 0.119057 -0.212132 -0.904329
v 0.12528 -0.15 -0.951596
v 0.129192 -0.0776457 -0.98131
v 0.258819 0 -0.965926
v 0.256173 0.0776457 -0.956052
v 0.248416 0.15 -0.927103
v 0.236077 0.212132 -0.881052
v 0.219996 0.259808 -0.821037
v 0.20127 0.289778 -0.751148
v 0.181173 0.3 -0.676148
v 0.161077 0.289778 -0.601148
v 0.14235 0.259808 -0.531259
v 0.12627 0.212132 -0.471244
v 0.11393 0.15 -0.425193
v 0.106173 0.0776457 -0.396244
v 0.103528 9.69327e-16 -0.38637
v 0.106173 -0.0776457 -0.396244
v 0.11393 -0.15 -0.425193
v 0.12627 -0.212132 -0.471244
v 0.14235 -0.259808 -0.531259
v 0.161077 -0.289778 -0.601148
v 0.181173 -0.3 -0.676148
v 0.20127 -0.289778 -0.751148
v 0.219996 -0.259808 -0.821037
v 0.236077 -0.212132 -0.881052
v 0.248416 -0.15 -0.927103
v 0.256173 -0.0776457 -0.956052
v 0.382683 0 -0.92388
v 0.378772 0.0776457 -0.914435
v 0.367302 0.15 -0.886747
v 0.349058 0.212132 -0.8427
v 0.325281 0.259808 -0.785298
v 0.297592 0.289778 -0.718451
v 0.267878 0.3 -0.646716
v 0.238165 0.289778 -0.57498
v 0.210476 0.259808 -0.508134
v 0.186699 0.212132 -0.450731
v 0.168454 0.15 -0.406685
v 0.156985 0.0776457 -0.378996
v 0.153073 9.69327e-16 -0.369552
v 0.156985 -0.0776457 -0.378996
v 0.168454 -0.15 -0.406685
v 0.186699 -0.212132 -0.450731
v 0.210476 -0.259808 -0.508134
v 0.238165 -0.289778 -0.57498
v 0.267878 -0.3 -0.646716
v 0.297592 -0.289778 -0.718451
v 0.325281 -0.259808 -0.785298
v 0.349058 -0.212132 -0.8427
v 0.367302 -0.15 -0.886747
v 0.378772 -0.0776457 -0.914435
v 0.5 0 -0.866025
v 0.494889 0.0776457 -0.857173
v 0.479904 0.15 -0.831218
v 0.456066 0.212132 -0.78993
v 0.425 0.259808 -0.736122
v 0.388823 0.289778 -0.673461
v 0.35 0.3 -0.606218
v 0.311177 0.289778 -0.538975
v 0.275 0.259808 -0.476314
v 0.243934 0.212132 -0.422506
v 0.220096 0.15 -0.381218
v 0.205111 0.0776457 -0.355263
v 0.2 9.69327e-16 -0.34641
v 0.205111 -0.0776457 -0.355263
v 0.220096 -0.15 -0.381218
v 0.243934 -0.212132 -0.422506
v 0.275 -0.259808 -0.476314
v 0.311177 -0.289778 -0.538975
v 0.35 -0.3 -0.606218
v 0.388823 -0.289778 -0.673461
v 0.425 -0.259808 -0.736122
v 0.456066 -0.212132 -0.78993
v 0.479904 -0.15 -0.831218
v 0.494889 -0.0776457 -0.857173
v 0.608761 0 -0.793353
v 0.602539 0.0776457 -0.785243
v 0.584294 0.15 -0.761467
v 0.555271 0.212132 -0.723643
v 0.517447 0.259808 -0.67435
v 0.473401 0.289778 -0.616948
v 0.426133 0.3 -0.555347
v 0.378865 0.289778 -0.493747
v 0.334819 0.259808 -0.436344
v 0.296995 0.212132 -0.387052
v 0.267972 0.15 -0.349228
v 0.249727 0.0776457 -0.325451
v 0.243505 9.69327e-16 -0.317341
v 0.249727 -0.0776457 -0.325451
v 0.267972 -0.15 -0.349228
v 0.296995 -0.212132 -0.387052
v 0.334819 -0.259808 -0.436344
v 0.378865 -0.289778 -0.493747
v 0.426133 -0.3 -0.555347
v 0.473401 -0.289778 -0.616948
v 0.517447 -0.259808 -0.67435
v 0.555271 -0.212132 -0.723643
v 0.584294 -0.15 -0.761467
v 0.602539 -0.0776457 -0.785243
v 0.707107 0 -0.707107
v 0.699879 0.0776457 -0.699879
v 0.678686 0.15 -0.678686
v 0.644975 0.212132 -0.644975
v 0.601041 0.259808 -0.601041
v 0.549879 0.289778 -0.549879
v 0.494975 0.3 -0.494975
v 0.440071 0.289778 -0.440071
v 0.388909 0.259808 -0.388909
v 0.344975 0.212132 -0.344975
v 0.311263 0.15 -0.311263
v 0.290071 0.0776457 -0.290071
v 0.282843 9.69327e-16 -0.282843
v 0.290071 -0.0776457 -0.290071
v 0.311263 -0.15 -0.311263
v 0.344975 -0.212132 -0.344975
v 0.388909 -0.259808 -0.388909
v 0.440071 -0.289778 -0.440071
v 0.494975 -0.3 -0.494975
v 0.549879 -0.289778 -0.549879
v 0.601041 -0.259808 -0.601041
v 0.644975 -0.212132 -0.644975
v 0.678686 -0.15 -0.678686
v 0.699879 -0.0776457 -0.699879
v 0.793353 0 -0.608761
v 0.785243 0.0776457 -0.602539
v 0.761467 0.15 -0.584294
v 0.723643 0.212132 -0.555271
v 0.67435 0.259808 -0.517447
v 0.616948 0.289778 -0.473401
v 0.555347 0.3 -0.426133
v 0.493747 0.289778 -0.378865
v 0.436344 0.259808 -0.334819
v 0.387052 0.212132 -0.296995
v 0.349228 0.15 -0.267972
v 0.325451 0.0776457 -0.249727
v 0.317341 9.69327e-16 -0.243505
v 0.325451 -0.0776457 -0.249727
v 0.349228 -0.15 -0.267972
v 0.387052 -0.212132 -0.296995
v 0.436344 -0.259808 -0.334819
v 0.493747 -0.289778 -0.378865
v 0.555347 -0.3 -0.426133
v 0.616948 -0.289778 -0.473401
v 0.67435 -0.259808 -0.517447
v 0.723643 -0.212132 -0.555271
v 0.761467 -0.15 -0.584294
v 0.785243 -0.0776457 -0.602539
v 0.866025 0 -0.5
v 0.857173 0.0776457 -0.494889
v 0.831218 0.15 -0.479904
v 0.78993 0.212132 -0.456066
v 0.736122 0.259808 -0.425
v 0.673461 0.289778 -0.388823
v 0.606218 0.3 -0.35
v 0.538975 0.289778 -0.311177
v 0.476314 0.259808 -0.275
v 0.422506 0.212132 -0.243934
v 0.381218 0.15 -0.220096
v 0.355263 0.0776457 -0.205111
v 0.34641 9.69327e-16 -0.2
v 0.355263 -0.0776457 -0.205111
v 0.381218 -0.15 -0.220096
v 0.422506 -0.212132 -0.243934
v 0.476314 -0.259808 -0.275
v 0.538975 -0.289778 -0.311177
v 0.606218 -0.3 -0.35
v 0.673461 -0.289778 -0.388823
v 0.736122 -0.259808 -0.425
v 0.78993 -0.212132 -0.456066
v 0.831218 -0.15 -0.479904
v 0.857173 -0.0776457 -0.494889
v 0.92388 0 -0.382683
v 0.914435 0.0776457 -0.378772
v 0.886747 0.15 -0.367302
v 0.8427 0.212132 -0.349058
v 0.785298 0.259808 -0.325281
v 0.718451 0.289778 -0.297592
v 0.646716 0.3 -0.267878
v 0.57498 0.289778 -0.238165
v 0.508134 0.259808 -0.210476
v 0.450731 0.212132 -0.186699
v 0.406685 0.15 -0.168454
v 0.378996 0.0776457 -0.156985
v 0.369552 9.69327e-16 -0.153073
v 0.378996 -0.0776457 -0.156985
v 0.406685 -0.15 -0.168454
v 0.450731 -0.212132 -0.186699
v 0.508134 -0.259808 -0.210476
v 0.57498 -0.289778 -0.238165
v 0.646716 -0.3 -0.267878
v 0.718451 -0.289778 -0.297592
v 0.785298 -0.259808 -0.325281
v 0.8427 -0.212132 -0.349058
v 0.886747 -0.15 -0.367302
v 0.914435 -0.0776457 -0.378772
v 0.965926 0 -0.258819
v 0.956052 0.0776457 -0.256173
v 0.927103 0.15 -0.248416
v 0.881052 0.212132 -0.236077
v 0.821037 0.259808 -0.219996
v 0.751148 0.289778 -0.20127
v 0.676148 0.3 -0.181173
v 0.601148 0.289778 -0.161077
v 0.531259 0.259808 -0.14235
v 0.471244 0.212132 -0.12627
v 0.425193 0.15 -0.11393
v 0.396244 0.0776457 -0.106173
v 0.38637 9.69327e-16 -0.103528
v 0.396244 -0.0776457 -0.106173
v 0.425193 -0.15 -0.11393
v 0.471244 -0.212132 -0.12627
v 0.531259 -0.259808 -0.14235
v 0.601148 -0.289778 -0.161077
v 0.676148 -0.3 -0.181173
v 0.751148 -0.289778 -0.20127
v 0.821037 -0.259808 -0.219996
v 0.881052 -0.212132 -0.236077
v 0.927103 -0.15 -0.248416
v 0.956052 -0.0776457 -0.256173
v 0.991445 0 -0.130526
v 0.98131 0.0776457 -0.129192
v 0.951596 0.15 -0.12528
v 0.904329 0.212132 -0.119057
v 0.842728 0.259808 -0.110947
v 0.770993 0.289778 -0.101503
v 0.694011 0.3 -0.0913683
v 0.61703 0.289778 -0.0812335
v 0.545295 0.259808 -0.0717894
v 0.483694 0.212132 -0.0636795
v 0.436426 0.15 -0.0574566
v 0.406713 0.0776457 -0.0535447
v 0.396578 9.69327e-16 -0.0522105
v 0.406713 -0.0776457 -0.0535447
v 0.436426 -0.15 -0.0574566
v 0.483694 -0.212132 -0.0636795
v 0.545295 -0.259808 -0.0717894
v 0.61703 -0.289778 -0.0812335
v 0.694011 -0.3 -0.0913683
v 0.770993 -0.289778 -0.101503
v 0.842728 -0.259808 -0.110947
v 0.904329 -0.212132 -0.119057
v 0.951596 -0.15 -0.12528
v 0.98131 -0.0776457 -0.129192
f 1 2 25
f 2 26 25
f 2 3 26
f 3 27 26
f 3 4 27
f 4 28 27
f 4 5 28
f 5 29 28
f 5 6 29
f 6 30 29
f 6 7 30
f 7 31 30
f 7 8 31
f 8 32 31
f 8 9 32
f 9 33 32
f 9 10 33
f 10 34 33
f 10 11 34
f 11 35 34
f 11 12 35
f 12 36 35
f 12 13 36
f 13 37 36
f 13 14 37
f 14 38 37
f 14 15 38
f 15 39 38
f 15 16 39
f 16 40 39
f 16 17 40
f 17 41 40
f 17 18 41
f 18 42 41
f 18 19 42
f 19 43 42
f 19 20 43
f 20 44 43
f 20 21 44
f 21 45 44
f 21 22 45
f 22 46 45
f 22 23 46
f 23 47 46
f 23 24 47
f 24 48 47
f 24 1 48
f 1 25 48
f 25 26 49
f 26 50 49
f 26 27 50
f 27 51 50
f 27 28 51
f 28 52 51
f 28 29 52
f 29 53 52
f 29 30 53
f 30 54 53
f 30 31 54
f 31 55 54
f 31 32 55
f 32 56 55
f 32 33 56
f 33 57 56
f 33 34 57
f 34 58 57
f 34 35 58
f 35 59 58
f 35 36 59
f 36 60 59
f 36 37 60
f 37 61 60
f 37 38 61
f 38 62 61
f 38 39 62
f 39 63 62
f 39 40 63
f 40 64 63
f 40 41 64
f 41 65 64
f 41 42 65
f 42 66 65
f 42 43 66
f 43 67 66
f 43 44 67
f 44 68 67
f 44 45 68
f 45 69 68
f 45 46 69
f 46 70 69
f 46 47 70
f 47 71 70
f 47 48 71
f 48 72 71
f 48 25 72
f 25 49 72
f 49 50 73
f 50 74 73
f 50 51 74
f 51 75 74
f 51 52 75
f 52 76 75
f 52 53 76
f 53 77 76
f 53 54 77
f 54 78 77
f 54 55 78
f 55 79 78
f 55 56 79
f 56 80 79
f 56 57 80
f 57 81 80
f 57 58 81
f 58 82 81
f 58 59 82
f 59 83 82
f 59 60 83
f 60 84 83
f 60 61 84
f 61 85 84
f 61 62 85
f 62 86 85
f 62 63 86
f 63 87 86
f 63 64 87
f 64 88 87
f 64 65 88
f 65 89 88
f 65 66 89
f 66 90 89
f 66 67 90
f 67 91 90
f 67 68 91
f 68 92 91
f 68 69 92
f 69 93 92
f 69 70 93
f 70 94 93
f 70 71 94
f 71 95 94
f 71 72 95
f 72 96 95
f 72 49 96
f 49 73 96
f 73 74 97
f 74 98 97
f 74 75 98
f 75 99 98
f 75 76 99
f 76 100 99
f 76 77 100
f 77 101 100
f 77 78 101
f 78 102 101
f 78 79 102
f 79 103 102
f 79 80 103
f 80 104 103
f 80 81 104
f 81 105 104
f 81 82 105
f 82 106 105
f 82 83 106
f 83 107 106
f 83 84 107
f 84 108 107
f 84 85 108
f 85 109 108
f 85 86 109
f 86 110 109
f 86 87 110
f 87 111 110
f 87 88 111
f 88 112 111
f 88 89 112
f 89 113 112
f 89 90 113
f 90 114 113
f 90 91 114
f 91 115 114
f 91 92 115
f 92 116 115
f 92 93 116
f 93 117 116
f 93 94 117
f 94 118 117
f 94 95 118
f 95 119 118
f 95 96 119
f 96 120 119
f 96 73 120
f 73 97 120
f 97 98 121
f 98 122 121
f 98 99 122
f 99 123 122
f 99 100 123
f 100 124 123
f 100 101 124
f 101 125 124
f 101 102 125
f 102 126 125
f 102 103 126
f 103 127 126
f 103 104 127
f 104 128 127
f 104 105 128
f 105 129 128
f 105 106 129
f 106 130 129
f 106 107 130
f 107 131 130
f 107 108 131
f 108 132 131
f 108 109 132
f 109 133 132
f 109 110 133
f 110 134 133
f 110 111 134
f 111 135 134
f 111 112 135
f 112 136 135
f 112 113 136
f 113 137 136
f 113 114 137
f 114 138 137
f 114 115 138
f 115 139 138
f 115 116 139
f 116 140 139
f 116 117 140
f 117 141 140
f 117 118 141
f 118 142 141
f 118 119 142
f 119 143 142
f 119 120 143
f 120 144 143
f 120 97 144
f 97 121 144
f 121 122 145
f 122 146 145
f 122 123 146
f 123 147 146
f 123 124 147
f 124 148 147
f 124 125 148
f 125 149 148
f 125 126 149
f 126 150 149
f 126 127 150
f 127 151 150
f 127 128 151
f 128 152 151
f 128 129 152
f 129 153 152
f 129 130 153
f 130 154 153
f 130 131 154
f 131 155 154
f 131 132 155
f 132 156 155
f 132 133 156
f 133 157 156
f 133 134 157
f 134 158 157
f 134 135 158
f 135 159 158
f 135 136 159
f 136 160 159
f 136 137 160
f 137 161 160
f 137 138 161
f 138 162 161
f 138 139 162
f 139 163 162
f 139 140 163
f 140 164 163
f 140 141 164
f 141 165 164
f 141 142 165
f 142 166 165
f 142 143 166
f 143 167 166
f 143 144 167
f 144 168 167
f 144 121 168
f 121 145 168
f 145 146 169
f 146 170 169
f 146 147 170
f 147 171 170
f 147 148 171
f 148 172 171
f 148 149 172
f 149 173 172
f 149 150 173
f 150 174 173
f 150 151 174
f 151 175 174
f 151 152 175
f 152 176 175
f 152 153 176
f 153 177 176
f 153 154 177
f 154 178 177
f 154 155 178
f 155 179 178
f 155 156 179
f 156 180 179
f 156 157 180
f 157 181 180
f 157 158 181
f 158 182 181
f 158 159 182
f 159 183 182
f 159 160 183
f 160 184 183
f 160 161 184
f 161 185 184
f 161 162 185
f 162 186 185
f 162 163 186
f 163 187 186
f 163 164 187
f 164 188 187
f 164 165 188
f 165 189 188
f 165 166 189
f 166 190 189
f 166 167 190
f 167 191 190
f 167 168 191
f 168 192 191
f 168 145 192
f 145 169 192
f 169 170 193
f 170 194 193
f 170 171 194
f 171 195 194
f 171 172 195
f 172 196 195
f 172 173 196
f 173 197 196
f 173 174 197
f 174 198 197
f 174 175 198
f 175 199 198
f 175 176 199
f 176 200 199
f 176 177 200
f 177 201 200
f 177 178 201
f 178 202 201
f 178 179 202
f 179 203 202
f 179 180 203
f 180 204 203
f 180 181 204
f 181 205 204
f 181 182 205
f 182 206 205
f 182 183 206
f 183 207 206
f 183 184 207
f 184 208 207
f 184 185 208
f 185 209 208
f 185 186 209
f 186 210 209
f 186 187 210
f 187 211 210
f 187 188 211
f 188 212 211
f 188 189 212
f 189 213 212
f 189 190 213
f 190 214 213
f 190 191 214
f 191 215 214
f 191 192 215
f 192 216 215
f 192 169 216
f 169 193 216
f 193 194 217
f 194 218 217
f 194 195 218
f 195 219 218
f 195 196 219
f 196 220 219
f 196 197 220
f 197 221 220
f 197 198 221
f 198 222 221
f 198 199 222
f 199 223 222
f 199 200 223
f 200 224 223
f 200 201 224
f 201 225 224
f 201 202 225
f 202 226 225
f 202 203 226
f 203 227 226
f 203 204 227
f 204 228 227
f 204 205 228
f 205 229 228
f 205 206 229
f 206 230 229
f 206 207 230
f 207 231 230
f 207 208 231
f 208 232 231
f 208 209 232
f 209 233 232
f 209 210 233
f 210 234 233
f 210 211 234
f 211 235 234
f 211 212 235
f 212 236 235
f 212 213 236
f 213 237 236
f 213 214 237
f 214 238 237
f 214 215 238
f 215 239 238
f 215 216 239
f 216 240 239
f 216 193 240
f 193 217 240
f 217 218 241
f 218 242 241
f 218 219 242
f 219 243 242
f 219 220 243
f 220 244 243
f 220 221 244
f 221 245 244
f 221 222 245
f 222 246 245
f 222 223 246
f 223 247 246
f 223 224 247
f 224 248 247
f 224 225 248
f 225 249 248
f 225 226 249
f 226 250 249
f 226 227 250
f 227 251 250
f 227 228 251
f 228 252 251
f 228 229 252
f 229 253 252
f 229 230 253
f 230 254 253
f 230 231 254
f 231 255 254
f 231 232 255
f 232 256 255
f 232 233 256
f 233 257 256
f 233 234 257
f 234 258 257
f 234 235 258
f 235 259 258
f 235 236 259
f 236 260 259
f 236 237 260
f 237 261 260
f 237 238 261
f 238 262 261
f 238 239 262
f 239 263 262
f 239 240 263
f 240 264 263
f 240 217 264
f 217 241 264
f 241 242 265
f 242 266 265
f 242 243 266
f 243 267 266
f 243 244 267
f 244 268 267
f 244 245 268
f 245 269 268
f 245 246 269
f 246 270 269
f 246 247 270
f 247 271 270
f 247 248 271
f 248 272 271
f 248 249 272
f 249 273 272
f 249 250 273
f 250 274 273
f 250 251 274
f 251 275 274
f 251 252 275
f 252 276 275
f 252 253 276
f 253 277 276
f 253 254 277
f 254 278 277
f 254 255 278
f 255 279 278
f 255 256 279
f 256 280 279
f 256 257 280
f 257 281 280
f 257 258 281
f 258 282 281
f 258 259 282
f 259 283 282
f 259 260 283
f 260 284 283
f 260 261 284
f 261 285 284
f 261 262 285
f 262 286 285
f 262 263 286
f 263 287 286
f 263 264 287
f 264 288 287
f 264 241 288
f 241 265 288
f 265 266 289
f 266 290 289
f 266 267 290
f 267 291 290
f 267 268 291
f 268 292 291
f 268 269 292
f 269 293 292
f 269 270 293
f 270 294 293
f 270 271 294
f 271 295 294
f 271 272 295
f 272 296 295
f 272 273 296
f 273 297 296
f 273 274 297
f 274 298 297
f 274 275 298
f 275 299 298
f 275 276 299
f 276 300 299
f 276 277 300
f 277 301 300
f 277 278 301
f 278 302 301
f 278 279 302
f 279 303 302
f 279 280 303
f 280 304 303
f 280 281 304
f 281 305 304
f 281 282 305
f 282 306 305
f 282 283 306
f 283 307 306
f 283 284 307
f 284 308 307
f 284 285 308
f 285 309 308
f 285 286 309
f 286 310 309
f 286 287 310
f 287 311 310
f 287 288 311
f 288 312 311
f 288 265 312
f 265 289 312
f 289 290 313
f 290 314 313
f 290 291 314
f 291 315 314
f 291 292 315
f 292 316 315
f 292 293 316
f 293 317 316
f 293 294 317
f 294 318 317
f 294 295 318
f 295 319 318
f 295 296 319
f 296 320 319
f 296 297 320
f 297 321 320
f 297 298 321
f 298 322 321
f 298 299 322
f 299 323 322
f 299 300 323
f 300 324 323
f 300 301 324
f 301 325 324
f 301 302 325
f 302 326 325
f 302 303 326
f 303 327 326
f 303 304 327
f 304 328 327
f 304 305 328
f 305 329 328
f 305 306 329
f 306 330 329
f 306 307 330
f 307 331 330
f 307 308 331
f 308 332 331
f 308 309 332
f 309 333 332
f 309 310 333
f 310 334 333
f 310 311 334
f 311 335 334
f 311 312 335
f 312 336 335
f 312 289 336
f 289 313 336
f 313 314 337
f 314 338 337
f 314 315 338
f 315 339 338
f 315 316 339
f 316 340 339
f 316 317 340
f 317 341 340
f 317 318 341
f 318 342 341
f 318 319 342
f 319 343 342
f 319 320 343
f 320 344 343
f 320 321 344
f 321 345 344
f 321 322 345
f 322 346 345
f 322 323 346
f 323 347 346
f 323 324 347
f 324 348 347
f 324 325 348
f 325 349 348
f 325 326 349
f 326 350 349
f 326 327 350
f 327 351 350
f 327 328 351
f 328 352 351
f 328 329 352
f 329 353 352
f 329 330 353
f 330 354 353
f 330 331 354
f 331 355 354
f 331 332 355
f 332 356 355
f 332 333 356
f 333 357 356
f 333 334 357
f 334 358 357
f 334 335 358
f 335 359 358
f 335 336 359
f 336 360 359
f 336 313 360
f 313 337 360
f 337 338 361
f 338 362 361
f 338 339 362
f 339 363 362
f 339 340 363
f 340 364 363
f 340 341 364
f 341 365 364
f 341 342 365
f 342 366 365
f 342 343 366
f 343 367 366
f 343 344 367
f 344 368 367
f 344 345 368
f 345 369 368
f 345 346 369
f 346 370 369
f 346 347 370
f 347 371 370
f 347 348 371
f 348 372 371
f 348 349 372
f 349 373 372
f 349 350 373
f 350 374 373
f 350 351 374
f 351 375 374
f 351 352 375
f 352 376 375
f 352 353 376
f 353 377 376
f 353 354 377
f 354 378 377
f 354 355 378
f 355 379 378
f 355 356 379
f 356 380 379
f 356 357 380
f 357 381 380
f 357 358 381
f 358 382 381
f 358 359 382
f 359 383 382
f 359 360 383
f 360 384 383
f 360 337 384
f 337 361 384
f 361 362 385
f 362 386 385
f 362 363 386
f 363 387 386
f 363 364 387
f 364 388 387
f 364 365 388
f 365 389 388
f 365 366 389
f 366 390 389
f 366 367 390
f 367 391 390
f 367 368 391
f 368 392 391
f 368 369 392
f 369 393 392
f 369 370 393
f 370 394 393
f 370 371 394
f 371 395 394
f 371 372 395
f 372 396 395
f 372 373 396
f 373 397 396
f 373 374 397
f 374 398 397
f 374 375 398
f 375 399 398
f 375 376 399
f 376 400 399
f 376 377 400
f 377 401 400
f 377 378 401
f 378 402 401
f 378 379 402
f 379 403 402
f 379 380 403
f 380 404 403
f 380 381 404
f 381 405 404
f 381 382 405
f 382 406 405
f 382 383 406
f 383 407 406
f 383 384 407
f 384 408 407
f 384 361 408
f 361 385 408
f 385 386 409
f 386 410 409
f 386 387 410
f 387 411 410
f 387 388 411
f 388 412 411
f 388 389 412
f 389 413 412
f 389 390 413
f 390 414 413
f 390 391 414
f 391 415 414
f 391 392 415
f 392 416 415
f 392 393 416
f 393 417 416
f 393 394 417
f 394 418 417
f 394 395 418
f 395 419 418
f 395 396 419
f 396 420 419
f 396 397 420
f 397 421 420
f 397 398 421
f 398 422 421
f 398 399 422
f 399 423 422
f 399 400 423
f 400 424 423
f 400 401 424
f 401 425 424
f 401 402 425
f 402 426 425
f 402 403 426
f 403 427 426
f 403 404 427
f 404 428 427
f 404 405 428
f 405 429 428
f 405 406 429
f 406 430 429
f 406 407 430
f 407 431 430
f 407 408 431
f 408 432 431
f 408 385 432
f 385 409 432
f 409 410 433
f 410 434 433
f 410 411 434
f 411 435 434
f 411 412 435
f 412 436 435
f 412 413 436
f 413 437 436
f 413 414 437
f 414 438 437
f 414 415 438
f 415 439 438
f 415 416 439
f 416 440 439
f 416 417 440
f 417 441 440
f 417 418 441
f 418 442 441
f 418 419 442
f 419 443 442
f 419 420 443
f 420 444 443
f 420 421 444
f 421 445 444
f 421 422 445
f 422 446 445
f 422 423 446
f 423 447 446
f 423 424 447
f 424 448 447
f 424 425 448
f 425 449 448
f 425 426 449
f 426 450 449
f 426 427 450
f 427 451 450
f 427 428 451
f 428 452 451
f 428 429 452
f 429 453 452
f 429 430 453
f 430 454 453
f 430 431 454
f 431 455 454
f 431 432 455
f 432 456 455
f 432 409 456
f 409 433 456
f 433 434 457
f 434 458 457
f 434 435 458
f 435 459 458
f 435 436 459
f 436 460 459
f 436 437 460
f 437 461 460
f 437 438 461
f 438 462 461
f 438 439 462
f 439 463 462
f 439 440 463
f 440 464 463
f 440 441 464
f 441 465 464
f 441 442 465
f 442 466 465
f 442 443 466
f 443 467 466
f 443 444 467
f 444 468 467
f 444 445 468
f 445 469 468
f 445 446 469
f 446 470 469
f 446 447 470
f 447 471 470
f 447 448 471
f 448 472 471
f 448 449 472
f 449 473 472
f 449 450 473
f 450 474 473
f 450 451 474
f 451 475 474
f 451 452 475
f 452 476 475
f 452 453 476
f 453 477 476
f 453 454 477
f 454 478 477
f 454 455 478
f 455 479 478
f 455 456 479
f 456 480 479
f 456 433 480
f 433 457 480
f 457 458 481
f 458 482 481
f 458 459 482
f 459 483 482
f 459 460 483
f 460 484 483
f 460 461 484
f 461 485 484
f 461 462 485
f 462 486 485
f 462 463 486
f 463 487 486
f 463 464 487
f 464 488 487
f 464 465 488
f 465 489 488
f 465 466 489
f 466 490 489
f 466 467 490
f 467 491 490
f 467 468 491
f 468 492 491
f 468 469 492
f 469 493 492
f 469 470 493
f 470 494 493
f 470 471 494
f 471 495 494
f 471 472 495
f 472 496 495
f 472 473 496
f 473 497 496
f 473 474 497
f 474 498 497
f 474 475 498
f 475 499 498
f 475 476 499
f 476 500 499
f 476 477 500
f 477 501 500
f 477 478 501
f 478 502 501
f 478 479 502
f 479 503 502
f 479 480 503
f 480 504 503
f 480 457 504
f 457 481 504
f 481 482 505
f 482 506 505
f 482 483 506
f 483 507 506
f 483 484 507
f 484 508 507
f 484 485 508
f 485 509 508
f 485 486 509
f 486 510 509
f 486 487 510
f 487 511 510
f 487 488 511
f 488 512 511
f 488 489 512
f 489 513 512
f 489 490 513
f 490 514 513
f 490 491 514
f 491 515 514
f 491 492 515
f 492 516 515
f 492 493 516
f 493 517 516
f 493 494 517
f 494 518 517
f 494 495 518
f 495 519 518
f 495 496 519
f 496 520 519
f 496 497 520
f 497 521 520
f 497 498 521
f 498 522 521
f 498 499 522
f 499 523 522
f 499 500 523
f 500 524 523
f 500 501 524
f 501 525 524
f 501 502 525
f 502 526 525
f 502 503 526
f 503 527 526
f 503 504 527
f 504 528 527
f 504 481 528
f 481 505 528
f 505 506 529
f 506 530 529
f 506 507 530
f 507 531 530
f 507 508 531
f 508 532 531
f 508 509 532
f 509 533 532
f 509 510 533
f 510 534 533
f 510 511 534
f 511 535 534
f 511 512 535
f 512 536 535
f 512 513 536
f 513 537 536
f 513 514 537
f 514 538 537
f 514 515 538
f 515 539 538
f 515 516 539
f 516 540 539
f 516 517 540
f 517 541 540
f 517 518 541
f 518 542 541
f 518 519 542
f 519 543 542
f 519 520 543
f 520 544 543
f 520 521 544
f 521 545 544
f 521 522 545
f 522 546 545
f 522 523 546
f 523 547 546
f 523 524 547
f 524 548 547
f 524 525 548
f 525 549 548
f 525 526 549
f 526 550 549
f 526 527 550
f 527 551 550
f 527 528 551
f 528 552 551
f 528 505 552
f 505 529 552
f 529 530 553
f 530 554 553
f 530 531 554
f 531 555 554
f 531 532 555
f 532 556 555
f 532 533 556
f 533 557 556
f 533 534 557
f 534 558 557
f 534 535 558
f 535 559 558
f 535 536 559
f 536 560 559
f 536 537 560
f 537 561 560
f 537 538 561
f 538 562 561
f 538 539 562
f 539 563 562
f 539 540 563
f 540 564 563
f 540 541 564
f 541 565 564
f 541 542 565
f 542 566 565
f 542 543 566
f 543 567 566
f 543 544 567
f 544 568 567
f 544 545 568
f 545 569 568
f 545 546 569
f 546 570 569
f 546 547 570
f 547 571 570
f 547 548 571
f 548 572 571
f 548 549 572
f 549 573 572
f 549 550 573
f 550 574 573
f 550 551 574
f 551 575 574
f 551 552 575
f 552 576 575
f 552 529 576
f 529 553 576
f 553 554 577
f 554 578 577
f 554 555 578
f 555 579 578
f 555 556 579
f 556 580 579
f 556 557 580
f 557 581 580
f 557 558 581
f 558 582 581
f 558 559 582
f 559 583 582
f 559 560 583
f 560 584 583
f 560 561 584
f 561 585 584
f 561 562 585
f 562 586 585
f 562 563 586
f 563 587 586
f 563 564 587
f 564 588 587
f 564 565 588
f 565 589 588
f 565 566 589
f 566 590 589
f 566 567 590
f 567 591 590
f 567 568 591
f 568 592 591
f 568 569 592
f 569 593 592
f 569 570 593
f 570 594 593
f 570 571 594
f 571 595 594
f 571 572 595
f 572 596 595
f 572 573 596
f 573 597 596
f 573 574 597
f 574 598 597
f 574 575 598
f 575 599 598
f 575 576 599
f 576 600 599
f 576 553 600
f 553 577 600
f 577 578 601
f 578 602 601
f 578 579 602
f 579 603 602
f 579 580 603
f 580 604 603
f 580 581 604
f 581 605 604
f 581 582 605
f 582 606 605
f 582 583 606
f 583 607 606
f 583 584 607
f 584 608 607
f 584 585 608
f 585 609 608
f 585 586 609
f 586 610 609
f 586 587 610
f 587 611 610
f 587 588 611
f 588 612 611
f 588 589 612
f 589 613 612
f 589 590 613
f 590 614 613
f 590 591 614
f 591 615 614
f 591 592 615
f 592 616 615
f 592 593 616
f 593 617 616
f 593 594 617
f 594 618 617
f 594 595 618
f 595 619 618
f 595 596 619
f 596 620 619
f 596 597 620
f 597 621 620
f 597 598 621
f 598 622 621
f 598 599 622
f 599 623 622
f 599 600 623
f 600 624 623
f 600 577 624
f 577 601 624
f 601 602 625
f 602 626 625
f 602 603 626
f 603 627 626
f 603 604 627
f 604 628 627
f 604 605 628
f 605 629 628
f 605 606 629
f 606 630 629
f 606 607 630
f 607 631 630
f 607 608 631
f 608 632 631
f 608 609 632
f 609 633 632
f 609 610 633
f 610 634 633
f 610 611 634
f 611 635 634
f 611 612 635
f 612 636 635
f 612 613 636
f 613 637 636
f 613 614 637
f 614 638 637
f 614 615 638
f 615 639 638
f 615 616 639
f 616 640 639
f 616 617 640
f 617 641 640
f 617 618 641
f 618 642 641
f 618 619 642
f 619 643 642
f 619 620 643
f 620 644 643
f 620 621 644
f 621 645 644
f 621 622 645
f 622 646 645
f 622 623 646
f 623 647 646
f 623 624 647
f 624 648 647
f 624 601 648
f 601 625 648
f 625 626 649
f 626 650 649
f 626 627 650
f 627 651 650
f 627 628 651
f 628 652 651
f 628 629 652
f 629 653 652
f 629 630 653
f 630 654 653
f 630 631 654
f 631 655 654
f 631 632 655
f 632 656 655
f 632 633 656
f 633 657 656
f 633 634 657
f 634 658 657
f 634 635 658
f 635 659 658
f 635 636 659
f 636 660 659
f 636 637 660
f 637 661 660
f 637 638 661
f 638 662 661
f 638 639 662
f 639 663 662
f 639 640 663
f 640 664 663
f 640 641 664
f 641 665 664
f 641 642 665
f 642 666 665
f 642 643 666
f 643 667 666
f 643 644 667
f 644 668 667
f 644 645 668
f 645 669 668
f 645 646 669
f 646 670 669
f 646 647 670
f 647 671 670
f 647 648 671
f 648 672 671
f 648 625 672
f 625 649 672
f 649 650 673
f 650 674 673
f 650 651 674
f 651 675 674
f 651 652 675
f 652 676 675
f 652 653 676
f 653 677 676
f 653 654 677
f 654 678 677
f 654 655 678
f 655 679 678
f 655 656 679
f 656 680 679
f 656 657 680
f 657 681 680
f 657 658 681
f 658 682 681
f 658 659 682
f 659 683 682
f 659 660 683
f 660 684 683
f 660 661 684
f 661 685 684
f 661 662 685
f 662 686 685
f 662 663 686
f 663 687 686
f 663 664 687
f 664 688 687
f 664 665 688
f 665 689 688
f 665 666 689
f 666 690 689
f 666 667 690
f 667 691 690
f 667 668 691
f 668 692 691
f 668 669 692
f 669 693 692
f 669 670 693
f 670 694 693
f 670 671 694
f 671 695 694
f 671 672 695
f 672 696 695
f 672 649 696
f 649 673 696
f 673 674 697
f 674 698 697
f 674 675 698
f 675 699 698
f 675 676 699
f 676 700 699
f 676 677 700
f 677 701 700
f 677 678 701
f 678 702 701
f 678 679 702
f 679 703 702
f 679 680 703
f 680 704 703
f 680 681 704
f 681 705 704
f 681 682 705
f 682 706 705
f 682 683 706
f 683 707 706
f 683 684 707
f 684 708 707
f 684 685 708
f 685 709 708
f 685 686 709
f 686 710 709
f 686 687 710
f 687 711 710
f 687 688 711
f 688 712 711
f 688 689 712
f 689 713 712
f 689 690 713
f 690 714 713
f 690 691 714
f 691 715 714
f 691 692 715
f 692 716 715
f 692 693 716
f 693 717 716
f 693 694 717
f 694 718 717
f 694 695 718
f 695 719 718
f 695 696 719
f 696 720 719
f 696 673 720
f 673 697 720
f 697 698 721
f 698 722 721
f 698 699 722
f 699 723 722
f 699 700 723
f 700 724 723
f 700 701 724
f 701 725 724
f 701 702 725
f 702 726 725
f 702 703 726
f 703 727 726
f 703 704 727
f 704 728 727
f 704 705 728
f 705 729 728
f 705 706 729
f 706 730 729
f 706 707 730
f 707 731 730
f 707 708 731
f 708 732 731
f 708 709 732
f 709 733 732
f 709 710 733
f 710 734 733
f 710 711 734
f 711 735 734
f 711 712 735
f 712 736 735
f 712 713 736
f 713 737 736
f 713 714 737
f 714 738 737
f 714 715 738
f 715 739 738
f 715 716 739
f 716 740 739
f 716 717 740
f 717 741 740
f 717 718 741
f 718 742 741
f 718 719 742
f 719 743 742
f 719 720 743
f 720 744 743
f 720 697 744
f 697 721 744
f 721 722 745
f 722 746 745
f 722 723 746
f 723 747 746
f 723 724 747
f 724 748 747
f 724 725 748
f 725 749 748
f 725 726 749
f 726 750 749
f 726 727 750
f 727 751 750
f 727 728 751
f 728 752 751
f 728 729 752
f 729 753 752
f 729 730 753
f 730 754 753
f 730 731 754
f 731 755 754
f 731 732 755
f 732 756 755
f 732 733 756
f 733 757 756
f 733 734 757
f 734 758 757
f 734 735 758
f 735 759 758
f 735 736 759
f 736 760 759
f 736 737 760
f 737 761 760
f 737 738 761
f 738 762 761
f 738 739 762
f 739 763 762
f 739 740 763
f 740 764 763
f 740 741 764
f 741 765 764
f 741 742 765
f 742 766 765
f 742 743 766
f 743 767 766
f 743 744 767
f 744 768 767
f 744 721 768
f 721 745 768
f 745 746 769
f 746 770 769
f 746 747 770
f 747 771 770
f 747 748 771
f 748 772 771
f 748 749 772
f 749 773 772
f 749 750 773
f 750 774 773
f 750 751 774
f 751 775 774
f 751 752 775
f 752 776 775
f 752 753 776
f 753 777 776
f 753 754 777
f 754 778 777
f 754 755 778
f 755 779 778
f 755 756 779
f 756 780 779
f 756 757 780
f 757 781 780
f 757 758 781
f 758 782 781
f 758 759 782
f 759 783 782
f 759 760 783
f 760 784 783
f 760 761 784
f 761 785 784
f 761 762 785
f 762 786 785
f 762 763 786
f 763 787 786
f 763 764 787
f 764 788 787
f 764 765 788
f 765 789 788
f 765 766 789
f 766 790 789
f 766 767 790
f 767 791 790
f 767 768 791
f 768 792 791
f 768 745 792
f 745 769 792
f 769 770 793
f 770 794 793
f 770 771 794
f 771 795 794
f 771 772 795
f 772 796 795
f 772 773 796
f 773 797 796
f 773 774 797
f 774 798 797
f 774 775 798
f 775 799 798
f 775 776 799
f 776 800 799
f 776 777 800
f 777 801 800
f 777 778 801
f 778 802 801
f 778 779 802
f 779 803 802
f 779 780 803
f 780 804 803
f 780 781 804
f 781 805 804
f 781 782 805
f 782 806 805
f 782 783 806
f 783 807 806
f 783 784 807
f 784 808 807
f 784 785 808
f 785 809 808
f 785 786 809
f 786 810 809
f 786 787 810
f 787 811 810
f 787 788 811
f 788 812 811
f 788 789 812
f 789 813 812
f 789 790 813
f 790 814 813
f 790 791 814
f 791 815 814
f 791 792 815
f 792 816 815
f 792 769 816
f 769 793 816
f 793 794 817
f 794 818 817
f 794 795 818
f 795 819 818
f 795 796 819
f 796 820 819
f 796 797 820
f 797 821 820
f 797 798 821
f 798 822 821
f 798 799 822
f 799 823 822
f 799 800 823
f 800 824 823
f 800 801 824
f 801 825 824
f 801 802 825
f 802 826 825
f 802 803 826
f 803 827 826
f 803 804 827
f 804 828 827
f 804 805 828
f 805 829 828
f 805 806 829
f 806 830 829
f 806 807 830
f 807 831 830
f 807 808 831
f 808 832 831
f 808 809 832
f 809 833 832
f 809 810 833
f 810 834 833
f 810 811 834
f 811 835 834
f 811 812 835
f 812 836 835
f 812 813 836
f 813 837 836
f 813 814 837
f 814 838 837
f 814 815 838
f 815 839 838
f 815 816 839
f 816 840 839
f 816 793 840
f 793 817 840
f 817 818 841
f 818 842 841
f 818 819 842
f 819 843 842
f 819 820 843
f 820 844 843
f 820 821 844
f 821 845 844
f 821 822 845
f 822 846 845
f 822 823 846
f 823 847 846
f 823 824 847
f 824 848 847
f 824 825 848
f 825 849 848
f 825 826 849
f 826 850 849
f 826 827 850
f 827 851 850
f 827 828 851
f 828 852 851
f 828 829 852
f 829 853 852
f 829 830 853
f 830 854 853
f 830 831 854
f 831 855 854
f 831 832 855
f 832 856 855
f 832 833 856
f 833 857 856
f 833 834 857
f 834 858 857
f 834 835 858
f 835 859 858
f 835 836 859
f 836 860 859
f 836 837 860
f 837 861 860
f 837 838 861
f 838 862 861
f 838 839 862
f 839 863 862
f 839 840 863
f 840 864 863
f 840 817 864
f 817 841 864
f 841 842 865
f 842 866 865
f 842 843 866
f 843 867 866
f 843 844 867
f 844 868 867
f 844 845 868
f 845 869 868
f 845 846 869
f 846 870 869
f 846 847 870
f 847 871 870
f 847 848 871
f 848 872 871
f 848 849 872
f 849 873 872
f 849 850 873
f 850 874 873
f 850 851 874
f 851 875 874
f 851 852 875
f 852 876 875
f 852 853 876
f 853 877 876
f 853 854 877
f 854 878 877
f 854 855 878
f 855 879 878
f 855 856 879
f 856 880 879
f 856 857 880
f 857 881 880
f 857 858 881
f 858 882 881
f 858 859 882
f 859 883 882
f 859 860 883
f 860 884 883
f 860 861 884
f 861 885 884
f 861 862 885
f 862 886 885
f 862 863 886
f 863 887 886
f 863 864 887
f 864 888 887
f 864 841 888
f 841 865 888
f 865 866 889
f 866 890 889
f 866 867 890
f 867 891 890
f 867 868 891
f 868 892 891
f 868 869 892
f 869 893 892
f 869 870 893
f 870 894 893
f 870 871 894
f 871 895 894
f 871 872 895
f 872 896 895
f 872 873 896
f 873 897 896
f 873 874 897
f 874 898 897
f 874 875 898
f 875 899 898
f 875 876 899
f 876 900 899
f 876 877 900
f 877 901 900
f 877 878 901
f 878 902 901
f 878 879 902
f 879 903 902
f 879 880 903
f 880 904 903
f 880 881 904
f 881 905 904
f 881 882 905
f 882 906 905
f 882 883 906
f 883 907 906
f 883 884 907
f 884 908 907
f 884 885 908
f 885 909 908
f 885 886 909
f 886 910 909
f 886 887 910
f 887 911 910
f 887 888 911
f 888 912 911
f 888 865 912
f 865 889 912
f 889 890 913
f 890 914 913
f 890 891 914
f 891 915 914
f 891 892 915
f 892 916 915
f 892 893 916
f 893 917 916
f 893 894 917
f 894 918 917
f 894 895 918
f 895 919 918
f 895 896 919
f 896 920 919
f 896 897 920
f 897 921 920
f 897 898 921
f 898 922 921
f 898 899 922
f 899 923 922
f 899 900 923
f 900 924 923
f 900 901 924
f 901 925 924
f 901 902 925
f 902 926 925
f 902 903 926
f 903 927 926
f 903 904 927
f 904 928 927
f 904 905 928
f 905 929 928
f 905 906 929
f 906 930 929
f 906 907 930
f 907 931 930
f 907 908 931
f 908 932 931
f 908 909 932
f 909 933 932
f 909 910 933
f 910 934 933
f 910 911 934
f 911 935 934
f 911 912 935
f 912 936 935
f 912 889 936
f 889 913 936
f 913 914 937
f 914 938 937
f 914 915 938
f 915 939 938
f 915 916 939
f 916 940 939
f 916 917 940
f 917 941 940
f 917 918 941
f 918 942 941
f 918 919 942
f 919 943 942
f 919 920 943
f 920 944 943
f 920 921 944
f 921 945 944
f 921 922 945
f 922 946 945
f 922 923 946
f 923 947 946
f 923 924 947
f 924 948 947
f 924 925 948
f 925 949 948
f 925 926 949
f 926 950 949
f 926 927 950
f 927 951 950
f 927 928 951
f 928 952 951
f 928 929 952
f 929 953 952
f 929 930 953
f 930 954 953
f 930 931 954
f 931 955 954
f 931 932 955
f 932 956 955
f 932 933 956
f 933 957 956
f 933 934 957
f 934 958 957
f 934 935 958
f 935 959 958
f 935 936 959
f 936 960 959
f 936 913 960
f 913 937 960
f 937 938 961
f 938 962 961
f 938 939 962
f 939 963 962
f 939 940 963
f 940 964 963
f 940 941 964
f 941 965 964
f 941 942 965
f 942 966 965
f 942 943 966
f 943 967 966
f 943 944 967
f 944 968 967
f 944 945 968
f 945 969 968
f 945 946 969
f 946 970 969
f 946 947 970
f 947 971 970
f 947 948 971
f 948 972 971
f 948 949 972
f 949 973 972
f 949 950 973
f 950 974 973
f 950 951 974
f 951 975 974
f 951 952 975
f 952 976 975
f 952 953 976
f 953 977 976
f 953 954 977
f 954 978 977
f 954 955 978
f 955 979 978
f 955 956 979
f 956 980 979
f 956 957 980
f 957 981 980
f 957 958 981
f 958 982 981
f 958 959 982
f 959 983 982
f 959 960 983
f 960 984 983
f 960 937 984
f 937 961 984
f 961 962 985
f 962 986 985
f 962 963 986
f 963 987 986
f 963 964 987
f 964 988 987
f 964 965 988
f 965 989 988
f 965 966 989
f 966 990 989
f 966 967 990
f 967 991 990
f 967 968 991
f 968 992 991
f 968 969 992
f 969 993 992
f 969 970 993
f 970 994 993
f 970 971 994
f 971 995 994
f 971 972 995
f 972 996 995
f 972 973 996
f 973 997 996
f 973 974 997
f 974 998 997
f 974 975 998
f 975 999 998
f 975 976 999
f 976 1000 999
f 976 977 1000
f 977 1001 1000
f 977 978 1001
f 978 1002 1001
f 978 979 1002
f 979 1003 1002
f 979 980 1003
f 980 1004 1003
f 980 981 1004
f 981 1005 1004
f 981 982 1005
f 982 1006 1005
f 982 983 1006
f 983 1007 1006
f 983 984 1007
f 984 1008 1007
f 984 961 1008
f 961 985 1008
f 985 986 1009
f 986 1010 1009
f 986 987 1010
f 987 1011 1010
f 987 988 1011
f 988 1012 1011
f 988 989 1012
f 989 1013 1012
f 989 990 1013
f 990 1014 1013
f 990 991 1014
f 991 1015 1014
f 991 992 1015
f 992 1016 1015
f 992 993 1016
f 993 1017 1016
f 993 994 1017
f 994 1018 1017
f 994 995 1018
f 995 1019 1018
f 995 996 1019
f 996 1020 1019
f 996 997 1020
f 997 1021 1020
f 997 998 1021
f 998 1022 1021
f 998 999 1022
f 999 1023 1022
f 999 1000 1023
f 1000 1024 1023
f 1000 1001 1024
f 1001 1025 1024
f 1001 1002 1025
f 1002 1026 1025
f 1002 1003 1026
f 1003 1027 1026
f 1003 1004 1027
f 1004 1028 1027
f 1004 1005 1028
f 1005 1029 1028
f 1005 1006 1029
f 1006 1030 1029
f 1006 1007 1030
f 1007 1031 1030
f 1007 1008 1031
f 1008 1032 1031
f 1008 985 1032
f 985 1009 1032
f 1009 1010 1033
f 1010 1034 1033
f 1010 1011 1034
f 1011 1035 1034
f 1011 1012 1035
f 1012 1036 1035
f 1012 1013 1036
f 1013 1037 1036
f 1013 1014 1037
f 1014 1038 1037
f 1014 1015 1038
f 1015 1039 1038
f 1015 1016 1039
f 1016 1040 1039
f 1016 1017 1040
f 1017 1041 1040
f 1017 1018 1041
f 1018 1042 1041
f 1018 1019 1042
f 1019 1043 1042
f 1019 1020 1043
f 1020 1044 1043
f 1020 1021 1044
f 1021 1045 1044
f 1021 1022 1045
f 1022 1046 1045
f 1022 1023 1046
f 1023 1047 1046
f 1023 1024 1047
f 1024 1048 1047
f 1024 1025 1048
f 1025 1049 1048
f 1025 1026 1049
f 1026 1050 1049
f 1026 1027 1050
f 1027 1051 1050
f 1027 1028 1051
f 1028 1052 1051
f 1028 1029 1052
f 1029 1053 1052
f 1029 1030 1053
f 1030 1054 1053
f 1030 1031 1054
f 1031 1055 1054
f 1031 1032 1055
f 1032 1056 1055
f 1032 1009 1056
f 1009 1033 1056
f 1033 1034 1057
f 1034 1058 1057
f 1034 1035 1058
f 1035 1059 1058
f 1035 1036 1059
f 1036 1060 1059
f 1036 1037 1060
f 1037 1061 1060
f 1037 1038 1061
f 1038 1062 1061
f 1038 1039 1062
f 1039 1063 1062
f 1039 1040 1063
f 1040 1064 1063
f 1040 1041 1064
f 1041 1065 1064
f 1041 1042 1065
f 1042 1066 1065
f 1042 1043 1066
f 1043 1067 1066
f 1043 1044 1067
f 1044 1068 1067
f 1044 1045 1068
f 1045 1069 1068
f 1045 1046 1069
f 1046 1070 1069
f 1046 1047 1070
f 1047 1071 1070
f 1047 1048 1071
f 1048 1072 1071
f 1048 1049 1072
f 1049 1073 1072
f 1049 1050 1073
f 1050 1074 1073
f 1050 1051 1074
f 1051 1075 1074
f 1051 1052 1075
f 1052 1076 1075
f 1052 1053 1076
f 1053 1077 1076
f 1053 1054 1077
f 1054 1078 1077
f 1054 1055 1078
f 1055 1079 1078
f 1055 1056 1079
f 1056 1080 1079
f 1056 1033 1080
f 1033 1057 1080
f 1057 1058 1081
f 1058 1082 1081
f 1058 1059 1082
f 1059 1083 1082
f 1059 1060 1083
f 1060 1084 1083
f 1060 1061 1084
f 1061 1085 1084
f 1061 1062 1085
f 1062 1086 1085
f 1062 1063 1086
f 1063 1087 1086
f 1063 1064 1087
f 1064 1088 1087
f 1064 1065 1088
f 1065 1089 1088
f 1065 1066 1089
f 1066 1090 1089
f 1066 1067 1090
f 1067 1091 1090
f 1067 1068 1091
f 1068 1092 1091
f 1068 1069 1092
f 1069 1093 1092
f 1069 1070 1093
f 1070 1094 1093
f 1070 1071 1094
f 1071 1095 1094
f 1071 1072 1095
f 1072 1096 1095
f 1072 1073 1096
f 1073 1097 1096
f 1073 1074 1097
f 1074 1098 1097
f 1074 1075 1098
f 1075 1099 1098
f 1075 1076 1099
f 1076 1100 1099
f 1076 1077 1100
f 1077 1101 1100
f 1077 1078 1101
f 1078 1102 1101
f 1078 1079 1102
f 1079 1103 1102
f 1079 1080 1103
f 1080 1104 1103
f 1080 1057 1104
f 1057 1081 1104
f 1081 1082 1105
f 1082 1106 1105
f 1082 1083 1106
f 1083 1107 1106
f 1083 1084 1107
f 1084 1108 1107
f 1084 1085 1108
f 1085 1109 1108
f 1085 1086 1109
f 1086 1110 1109
f 1086 1087 1110
f 1087 1111 1110
f 1087 1088 1111
f 1088 1112 1111
f 1088 1089 1112
f 1089 1113 1112
f 1089 1090 1113
f 1090 1114 1113
f 1090 1091 1114
f 1091 1115 1114
f 1091 1092 1115
f 1092 1116 1115
f 1092 1093 1116
f 1093 1117 1116
f 1093 1094 1117
f 1094 1118 1117
f 1094 1095 1118
f 1095 1119 1118
f 1095 1096 1119
f 1096 1120 1119
f 1096 1097 1120
f 1097 1121 1120
f 1097 1098 1121
f 1098 1122 1121
f 1098 1099 1122
f 1099 1123 1122
f 1099 1100 1123
f 1100 1124 1123
f 1100 1101 1124
f 1101 1125 1124
f 1101 1102 1125
f 1102 1126 1125
f 1102 1103 1126
f 1103 1127 1126
f 1103 1104 1127
f 1104 1128 1127
f 1104 1081 1128
f 1081 1105 1128
f 1105 1106 1129
f 1106 1130 1129
f 1106 1107 1130
f 1107 1131 1130
f 1107 1108 1131
f 1108 1132 1131
f 1108 1109 1132
f 1109 1133 1132
f 1109 1110 1133
f 1110 1134 1133
f 1110 1111 1134
f 1111 1135 1134
f 1111 1112 1135
f 1112 1136 1135
f 1112 1113 1136
f 1113 1137 1136
f 1113 1114 1137
f 1114 1138 1137
f 1114 1115 1138
f 1115 1139 1138
f 1115 1116 1139
f 1116 1140 1139
f 1116 1117 1140
f 1117 1141 1140
f 1117 1118 1141
f 1118 1142 1141
f 1118 1119 1142
f 1119 1143 1142
f 1119 1120 1143
f 1120 1144 1143
f 1120 1121 1144
f 1121 1145 1144
f 1121 1122 1145
f 1122 1146 1145
f 1122 1123 1146
f 1123 1147 1146
f 1123 1124 1147
f 1124 1148 1147
f 1124 1125 1148
f 1125 1149 1148
f 1125 1126 1149
f 1126 1150 1149
f 1126 1127 1150
f 1127 1151 1150
f 1127 1128 1151
f 1128 1152 1151
f 1128 1105 1152
f 1105 1129 1152
f 1129 1130 1
f 1130 2 1
f 1130 1131 2
f 1131 3 2
f 1131 1132 3
f 1132 4 3
f 1132 1133 4
f 1133 5 4
f 1133 1134 5
f 1134 6 5
f 1134 1135 6
f 1135 7 6
f 1135 1136 7
f 1136 8 7
f 1136 1137 8
f 1137 9 8
f 1137 1138 9
f 1138 10 9
f 1138 1139 10
f 1139 11 10
f 1139 1140 11
f 1140 12 11
f 1140 1141 12
f 1141 13 12
f 1141 1142 13
f 1142 14 13
f 1142 1143 14
f 1143 15 14
f 1143 1144 15
f 1144 16 15
f 1144 1145 16
f 1145 17 16
f 1145 1146 17
f 1146 18 17
f 1146 1147 18
f 1147 19 18
f 1147 1148 19
f 1148 20 19
f 1148 1149 20
f 1149 21 20
f 1149 1150 21
f 1150 22 21
f 1150 1151 22
f 1151 23 22
f 1151 1152 23
f 1152 24 23
f 1152 1129 24
f 1129 1 24
